<svg width="252" height="22" viewBox="0 0 252 22" fill="none" xmlns="http://www.w3.org/2000/svg">
<path d="M13.0052 13.1753H8.67017V8.8053H13.0052V13.1753Z" fill="#263238"/>
<path d="M21.6758 13.1753H17.3408V8.8053H21.6758V13.1753Z" fill="#263238"/>
<path d="M43.3517 0.063633V21.918H26.0113V4.43463H4.335V17.547H21.6763L26.0113 21.918H0V0.063633H43.3517Z" fill="#263238"/>
<path d="M72.166 4.33352H62.2841V8.80219H71.6574V13.0529H62.2841V21.8809H57.8521V0.0828571H72.166V4.33352Z" fill="#263238"/>
<mask id="mask0_153_10795" style="mask-type:luminance" maskUnits="userSpaceOnUse" x="57" y="0" width="195" height="22">
<path d="M57.8281 0H251.578V22H57.8281V0Z" fill="white"/>
</mask>
<g mask="url(#mask0_153_10795)">
<path d="M88.5874 16.4675V5.53217C88.2481 4.95083 87.8124 4.50283 87.2798 4.18783H81.9391C81.4064 4.5755 80.9581 5.03617 80.5954 5.5685V16.4675C81.0791 17.1215 81.5154 17.5702 81.9031 17.8118H87.2434C87.7034 17.4732 88.1518 17.0252 88.5874 16.4675ZM93.0198 16.4675C93.0198 17.3635 92.8137 18.1148 92.4024 18.7198C91.3854 20.0278 90.5007 20.9122 89.7501 21.3722C88.9744 21.8325 88.1754 22.0625 87.3524 22.0625H81.8304C81.0068 22.0625 80.2074 21.8325 79.4328 21.3722C79.0691 21.1542 78.6021 20.7488 78.0341 20.1552C77.4644 19.5618 77.0468 19.0832 76.7804 18.7198C76.3684 18.1148 76.1631 17.3635 76.1631 16.4675V5.53217C76.1631 4.61184 76.3684 3.84917 76.7804 3.24317C77.0468 2.87984 77.4644 2.40784 78.0341 1.8265C78.6021 1.24517 79.0691 0.845501 79.4328 0.627169C80.2074 0.167835 81.0068 -0.0628319 81.8304 -0.0628319H87.3524C88.1754 -0.0628319 88.9744 0.167835 89.7501 0.627169C90.4277 1.01517 91.3124 1.88717 92.4024 3.24317C92.8137 3.84917 93.0198 4.61184 93.0198 5.53217V16.4675Z" fill="#263238"/>
<path d="M108.867 8.43886V5.20519C108.624 4.81819 108.309 4.52752 107.922 4.33352H101.746V9.31052H107.922C107.995 9.31052 108.146 9.20786 108.377 9.00186C108.606 8.79652 108.77 8.60852 108.867 8.43886ZM113.299 8.40252C113.299 9.29886 113.069 10.0862 112.609 10.7642C112.463 11.0065 112.166 11.3455 111.719 11.7809C111.27 12.2172 110.914 12.5322 110.647 12.7259C110.453 12.8709 110.162 13.0409 109.775 13.2345L114.498 21.8809H109.557L105.234 13.5612H101.746V21.8809H97.314V0.0828571H107.922C108.988 0.0828571 109.896 0.361523 110.647 0.91819C111.374 1.47552 112.028 2.14152 112.609 2.91686C113.069 3.54652 113.299 4.34619 113.299 5.31419V8.40252Z" fill="#263238"/>
<path d="M120.777 0.591167C121.527 0.155167 122.326 -0.0628319 123.174 -0.0628319H128.697C130.391 -0.0628319 131.978 0.9545 133.456 2.98883C133.94 3.6675 134.352 4.44217 134.691 5.31383L130.586 6.4765C130.126 5.50817 129.483 4.74517 128.66 4.18783H123.356C122.775 4.5755 122.302 5.04783 121.939 5.6045V16.6125C121.939 16.7095 122.09 16.8978 122.393 17.1758C122.696 17.4545 122.992 17.6665 123.283 17.8118H128.588C128.854 17.6908 129.151 17.4732 129.478 17.1575C129.804 16.8432 129.968 16.6252 129.968 16.5035V13.2342H124.991V9.0925H134.4V17.2668C134.4 17.6298 134.485 18.3205 134.655 19.3372L135.09 21.9172H130.695L130.549 21.2628C130.501 21.2875 130.343 21.3845 130.077 21.5535C129.496 21.8925 129.024 22.0625 128.66 22.0625H123.174C122.351 22.0625 121.552 21.8325 120.777 21.3722C120.413 21.1538 119.947 20.7665 119.378 20.2092C118.809 19.6528 118.391 19.1805 118.124 18.7925C117.712 18.1388 117.507 17.3885 117.507 16.5402V5.4955C117.507 4.5755 117.712 3.8125 118.124 3.20683C118.391 2.8435 118.809 2.37117 119.378 1.79017C119.947 1.20883 120.413 0.809168 120.777 0.591167Z" fill="#263238"/>
<path d="M153.364 21.8809H139.05V0.0825253H153.364V4.33352H143.482V8.80219H153.037V13.0529H143.482V17.6302H153.364V21.8809Z" fill="#263238"/>
<path d="M180.611 21.8809H166.515V0.0825253H170.947V17.5942H180.611V21.8809Z" fill="#263238"/>
<path d="M194.908 13.4522L192.438 6.44052C192.172 7.21619 191.766 8.38452 191.221 9.94652C190.677 11.5089 190.27 12.6775 190.004 13.4522H194.908ZM202.429 21.8809H197.706L196.253 17.7029H188.66C188.515 18.1635 188.266 18.8602 187.915 19.7922C187.564 20.7245 187.316 21.4212 187.17 21.8809H182.447L190.004 0.0828571H194.908L202.429 21.8809Z" fill="#263238"/>
<path d="M216.779 16.6859V14.0335C216.634 13.7915 216.453 13.5612 216.234 13.3435C216.016 13.1252 215.871 13.0162 215.798 13.0162H209.695V17.6302H215.834C215.907 17.6302 216.053 17.5275 216.271 17.3215C216.489 17.1159 216.658 16.9035 216.779 16.6859ZM216.779 8.00286V5.35052C216.634 5.10886 216.453 4.87852 216.234 4.66019C216.016 4.44252 215.871 4.33352 215.798 4.33352H209.695V8.91086H215.834C215.907 8.91086 216.053 8.80819 216.271 8.60219C216.489 8.39686 216.658 8.19719 216.779 8.00286ZM221.212 16.6859C221.212 17.6302 220.994 18.4175 220.557 19.0472C220 19.8462 219.358 20.5125 218.632 21.0452C217.833 21.6029 216.912 21.8809 215.871 21.8809H205.262V0.0825214H215.871C216.888 0.0825214 217.808 0.37319 218.632 0.954857C218.874 1.14886 219.207 1.46319 219.631 1.89919C220.054 2.33519 220.363 2.67486 220.557 2.91652C220.994 3.57052 221.212 4.38219 221.212 5.35052V7.96652C221.212 9.10519 220.812 10.1225 220.013 11.0182C220.812 11.8902 221.212 12.9072 221.212 14.0699V16.6859Z" fill="#263238"/>
<path d="M231.02 4.18783C230.85 4.28483 230.651 4.43617 230.421 4.64183C230.19 4.84783 230.009 5.02983 229.875 5.18683C229.742 5.34484 229.676 5.4355 229.676 5.45917V7.38483L229.785 7.60283L239.013 10.1098C239.957 10.3765 240.696 10.9092 241.229 11.7082C241.762 12.5075 242.028 13.3795 242.028 14.3238V16.4675C242.028 17.2912 241.81 18.0422 241.374 18.7198C241.132 19.0832 240.72 19.5618 240.139 20.1548C239.557 20.7488 239.085 21.1538 238.722 21.3722C237.898 21.8325 237.099 22.0625 236.325 22.0625H230.766C229.022 22.0625 227.423 21.0332 225.971 18.9742C225.437 18.2475 225.026 17.4728 224.735 16.6492L228.841 15.3772C229.542 16.6375 230.172 17.4482 230.73 17.8118H236.252C236.421 17.7148 236.615 17.5698 236.833 17.3755C237.051 17.1822 237.226 17.0065 237.36 16.8488C237.492 16.6918 237.559 16.6008 237.559 16.5765V14.4328L237.451 14.2152C236.579 13.9732 235.107 13.5735 233.036 13.0158C230.965 12.4588 229.373 12.0352 228.259 11.7445C227.29 11.4782 226.545 10.9448 226.025 10.1458C225.504 9.34683 225.243 8.4745 225.243 7.53017V5.53217C225.243 4.61184 225.437 3.84883 225.825 3.24317C226.067 2.9045 226.485 2.44383 227.078 1.8625C227.672 1.2815 228.162 0.869501 228.55 0.627169C229.373 0.167501 230.16 -0.0628319 230.911 -0.0628319H236.07C237.765 -0.0628319 239.351 0.9545 240.829 2.98883C241.313 3.66717 241.725 4.44217 242.065 5.31383L237.959 6.4765C237.499 5.50817 236.857 4.74517 236.034 4.18783H231.02Z" fill="#263238"/>
<path d="M251.364 21.8809H246.241V16.7219H251.364V21.8809Z" fill="#263238"/>
</g>
</svg>
